# xmcd
#
# Track frame offsets: 
#        150
#        19427
#        38597
#        57974
#        78477
#        99617
#        115270
#        135420
#        156737
#        170982
#        188202
#        208740
#        230772
#        256530
#        276376
#        294987
#        311536
#        332248
#
# Disc length: 4721 seconds
#
# Revision: 2
# Processed by: cddbd v1.5.2PL0 Copyright (c) Steve Scherf et al.
# Submitted via: ExactAudioCopy v1.0b1
#
DISCID=0f126f12
DTITLE=Corrs - Best 2000
DYEAR=2000
DGENRE=pop
TTITLE0=Radio
TTITLE1=Forgiven not forgotten
TTITLE2=Heaven knows
TTITLE3=At your side
TTITLE4=Little wing
TTITLE5=Breathless
TTITLE6=No frontiers
TTITLE7=Queen of hollywood
TTITLE8=Old town
TTITLE9=Someday
TTITLE10=Say
TTITLE11=So young
TTITLE12=Everybody hurts
TTITLE13=Runaway
TTITLE14=Love to love you
TTITLE15=Irresistible
TTITLE16=What can i do
TTITLE17=Radio (unplugged)
EXTD=
EXTT0=
EXTT1=
EXTT2=
EXTT3=
EXTT4=
EXTT5=
EXTT6=
EXTT7=
EXTT8=
EXTT9=
EXTT10=
EXTT11=
EXTT12=
EXTT13=
EXTT14=
EXTT15=
EXTT16=
EXTT17=
PLAYORDER=
